<svg width="349" height="349" viewBox="0 0 349 349" fill="none" xmlns="http://www.w3.org/2000/svg">
<g filter="url(#filter0_f_180_2)">
<path d="M327.188 21.8125H21.8125V327.188H327.188V21.8125Z" fill="#F5DE19"/>
<path d="M226.948 260.387C229.55 265.672 233.592 270.114 238.609 273.202C243.626 276.289 249.414 277.896 255.304 277.837C267.192 277.837 274.794 271.893 274.794 263.659C274.794 253.843 266.985 250.331 253.898 244.605L246.721 241.53C225.999 232.707 212.257 221.659 212.257 198.297C212.257 176.779 228.617 160.387 254.279 160.387C262.587 159.787 270.887 161.647 278.144 165.733C285.402 169.82 291.296 175.953 295.09 183.367L272.656 197.708C271.195 194.032 268.651 190.887 265.361 188.69C262.071 186.493 258.191 185.348 254.236 185.406C252.51 185.233 250.767 185.422 249.118 185.96C247.469 186.498 245.951 187.374 244.659 188.531C243.367 189.688 242.33 191.102 241.615 192.682C240.9 194.262 240.522 195.974 240.505 197.708C240.505 206.314 245.838 209.804 258.151 215.158L265.327 218.234C289.714 228.693 303.499 239.349 303.499 263.31C303.499 289.146 283.203 303.303 255.948 303.303C245.329 303.979 234.74 301.568 225.461 296.361C216.181 291.153 208.607 283.371 203.652 273.954L226.948 260.387ZM125.575 262.873C130.079 270.868 134.18 277.629 144.039 277.629C153.462 277.629 159.417 273.943 159.417 259.601V162.023H188.111V259.983C188.111 289.692 170.661 303.216 145.26 303.216C136.282 303.706 127.365 301.469 119.682 296.797C111.999 292.125 105.909 285.238 102.213 277.041L125.575 262.873Z" fill="black"/>
</g>
<defs>
<filter id="filter0_f_180_2" x="-17.3665" y="-17.3665" width="383.733" height="383.733" filterUnits="userSpaceOnUse" color-interpolation-filters="sRGB">
<feFlood flood-opacity="0" result="BackgroundImageFix"/>
<feBlend mode="normal" in="SourceGraphic" in2="BackgroundImageFix" result="shape"/>
<feGaussianBlur stdDeviation="8.68325" result="effect1_foregroundBlur_180_2"/>
</filter>
</defs>
</svg>
