<svg width="347" height="347" viewBox="0 0 347 347" fill="none" xmlns="http://www.w3.org/2000/svg">
<g filter="url(#filter0_f_189_2)">
<path d="M200.038 173.261C200.038 159.052 188.157 147.531 173.5 147.531C158.844 147.531 146.962 159.052 146.962 173.261C146.962 187.473 158.844 198.993 173.5 198.993C188.157 198.993 200.038 187.473 200.038 173.261Z" fill="#53C1DE"/>
<path fill-rule="evenodd" clip-rule="evenodd" d="M259.688 125.491C265.292 103.411 272.337 62.4656 247.504 48.5838C222.787 34.7625 190.622 61.2466 173.638 77.1437C156.703 61.405 123.635 35.0341 98.823 48.96C74.1156 62.8277 81.7348 103.094 87.4632 125.313C64.4154 131.66 24.9062 145.331 24.9062 173.261C24.9062 201.113 64.3743 215.986 87.2857 222.327C81.5361 244.668 74.2984 284.36 99.0374 298.197C123.942 312.12 156.907 286.377 174.049 270.306C191.142 286.297 222.998 312.208 247.72 298.333C272.519 284.413 266.06 244.017 260.331 221.669C282.541 215.314 322.094 200.765 322.094 173.261C322.094 145.599 282.373 131.817 259.688 125.491ZM256.873 209.826C253.112 198.281 248.035 186.005 241.824 173.323C247.752 160.94 252.632 148.822 256.289 137.351C272.918 142.026 309.399 152.71 309.399 173.261C309.399 194.006 274.391 204.791 256.873 209.826ZM241.358 287.679C222.912 298.031 195.513 273.252 182.889 261.476C191.264 252.595 199.633 242.271 207.8 230.807C222.168 229.571 235.741 227.55 248.05 224.792C252.082 240.599 259.884 277.281 241.358 287.679ZM105.381 287.532C86.9335 277.218 95.3652 241.8 99.5951 225.342C111.768 227.954 125.243 229.832 139.644 230.964C147.866 242.182 156.477 252.493 165.155 261.524C154.433 271.58 123.914 297.893 105.381 287.532ZM37.601 173.261C37.601 152.439 73.8636 141.833 90.8724 137.17C94.5919 148.898 99.4701 161.161 105.357 173.561C99.3938 186.146 94.4458 198.603 90.6922 210.47C74.4741 205.969 37.601 194.096 37.601 173.261ZM105.184 59.6132C123.706 49.2178 152.446 74.5349 164.742 85.93C156.109 94.9191 147.576 105.153 139.425 116.306C125.449 117.562 112.069 119.579 99.7687 122.282C95.1539 104.361 86.6808 69.9974 105.184 59.6132ZM216.882 129.686C226.365 130.846 235.45 132.389 243.98 134.277C241.419 142.236 238.227 150.558 234.468 159.089C229.019 149.064 223.169 139.24 216.882 129.686ZM173.642 94.7265C179.497 100.877 185.362 107.745 191.131 115.197C179.429 114.66 167.708 114.658 156.006 115.189C161.78 107.806 167.695 100.948 173.642 94.7265ZM112.641 159.08C108.944 150.579 105.781 142.22 103.198 134.147C111.677 132.308 120.72 130.804 130.14 129.663C123.836 139.197 117.996 149.017 112.641 159.08ZM130.411 217.738C120.679 216.685 111.499 215.258 103.023 213.469C105.647 205.254 108.879 196.715 112.655 188.03C118.084 198.199 124.013 208.114 130.411 217.738ZM173.993 252.666C167.976 246.37 161.974 239.407 156.113 231.918C167.881 232.366 179.673 232.367 191.44 231.858C185.653 239.484 179.809 246.457 173.993 252.666ZM234.589 187.589C238.561 196.368 241.91 204.86 244.569 212.936C235.952 214.843 226.649 216.378 216.847 217.518C223.18 207.783 229.123 197.806 234.589 187.589ZM200.715 219.01C182.714 220.257 164.6 220.244 146.593 219.112C136.36 204.62 127.252 189.38 119.389 173.557C127.214 157.768 136.256 142.557 146.44 128.088C164.461 126.767 182.592 126.763 200.612 128.096C210.709 142.564 219.737 157.735 227.744 173.382C219.833 189.164 210.743 204.406 200.715 219.01ZM241.163 59.2472C259.69 69.6086 251.443 106.408 247.396 122.409C235.066 119.651 221.677 117.598 207.66 116.322C199.493 105.048 191.032 94.7966 182.538 85.9237C194.992 74.283 222.814 48.9872 241.163 59.2472Z" fill="#53C1DE"/>
</g>
<defs>
<filter id="filter0_f_189_2" x="0" y="0" width="347" height="347" filterUnits="userSpaceOnUse" color-interpolation-filters="sRGB">
<feFlood flood-opacity="0" result="BackgroundImageFix"/>
<feBlend mode="normal" in="SourceGraphic" in2="BackgroundImageFix" result="shape"/>
<feGaussianBlur stdDeviation="7.5" result="effect1_foregroundBlur_189_2"/>
</filter>
</defs>
</svg>
