<svg width="211" height="211" viewBox="0 0 211 211" fill="none" xmlns="http://www.w3.org/2000/svg">
<g filter="url(#filter0_f_181_2)">
<path d="M189.023 13.1779H21.8224C17.0481 13.1779 13.1777 17.0482 13.1777 21.8225V189.023C13.1777 193.798 17.0481 197.668 21.8224 197.668H189.023C193.798 197.668 197.668 193.798 197.668 189.023V21.8225C197.668 17.0482 193.798 13.1779 189.023 13.1779Z" fill="#3178C6"/>
<path fill-rule="evenodd" clip-rule="evenodd" d="M120.215 156.547V176.762C123.888 178.574 127.802 179.85 131.838 180.55C136.502 181.411 141.235 181.835 145.978 181.815C150.6 181.837 155.211 181.371 159.736 180.425C163.798 179.604 167.673 178.041 171.167 175.813C174.411 173.719 177.085 170.853 178.949 167.471C182.287 160.469 182.727 152.433 180.174 145.108C179.097 142.369 177.492 139.868 175.45 137.748C173.259 135.494 170.769 133.55 168.051 131.97C164.921 130.137 161.67 128.521 158.319 127.134C155.683 126.04 153.311 124.977 151.203 123.945C149.33 123.048 147.538 121.992 145.846 120.789C144.521 119.86 143.37 118.704 142.446 117.375C141.648 116.169 141.232 114.75 141.254 113.303C141.236 111.972 141.607 110.665 142.321 109.541C143.097 108.365 144.131 107.383 145.345 106.668C146.83 105.795 148.445 105.165 150.129 104.804C152.197 104.344 154.31 104.123 156.428 104.145C158.209 104.151 159.988 104.279 161.752 104.527C163.657 104.785 165.541 105.174 167.392 105.693C169.274 106.215 171.116 106.876 172.9 107.67C174.632 108.442 176.289 109.373 177.849 110.45V91.5863C174.601 90.3576 171.233 89.4743 167.8 88.9508C163.655 88.3476 159.47 88.0635 155.281 88.1008C150.703 88.0761 146.138 88.5959 141.682 89.6492C137.654 90.5695 133.825 92.2054 130.375 94.4789C127.171 96.6135 124.525 99.4853 122.66 102.853C120.683 106.594 119.705 110.781 119.82 115.01C119.674 120.603 121.516 126.066 125.018 130.428C129.316 135.265 134.734 138.973 140.799 141.227C143.566 142.369 146.147 143.487 148.541 144.581C150.701 145.542 152.777 146.682 154.748 147.988C156.337 149.022 157.733 150.326 158.872 151.842C159.874 153.217 160.405 154.879 160.388 156.58C160.397 157.854 160.07 159.109 159.439 160.217C158.738 161.407 157.754 162.406 156.573 163.122C155.095 164.023 153.479 164.673 151.789 165.046C149.588 165.539 147.337 165.771 145.082 165.738C140.656 165.73 136.266 164.95 132.108 163.432C127.765 161.865 123.737 159.533 120.215 156.547ZM86.2557 106.22H112.611V89.5701H39.125V106.22H65.3622V180.372H86.2557V106.22Z" fill="white"/>
</g>
<defs>
<filter id="filter0_f_181_2" x="-10.2" y="-10.2" width="231.246" height="231.246" filterUnits="userSpaceOnUse" color-interpolation-filters="sRGB">
<feFlood flood-opacity="0" result="BackgroundImageFix"/>
<feBlend mode="normal" in="SourceGraphic" in2="BackgroundImageFix" result="shape"/>
<feGaussianBlur stdDeviation="5.1" result="effect1_foregroundBlur_181_2"/>
</filter>
</defs>
</svg>
